<svg xmlns="http://www.w3.org/2000/svg" version="1.1" xmlns:xlink="http://www.w3.org/1999/xlink" width="512" height="512" x="0" y="0" viewBox="0 0 512 512" style="enable-background:new 0 0 512 512" xml:space="preserve" class=""><g><path d="M480.6 235.6c-11.3 0-20.4 9.1-20.4 20.4 0 112.6-91.6 204.2-204.2 204.2S51.8 368.6 51.8 256 143.4 51.8 256 51.8c61.5 0 118.5 27.1 157.1 73.7h-70.5c-11.3 0-20.4 9.1-20.4 20.4s9.1 20.4 20.4 20.4h114.6c11.3 0 20.4-9.1 20.4-20.4V31.4c0-11.3-9.1-20.4-20.4-20.4s-20.4 9.1-20.4 20.4v59C390.7 40.1 325.8 11 256 11 120.9 11 11 120.9 11 256s109.9 245 245 245 245-109.9 245-245c0-11.3-9.1-20.4-20.4-20.4z" fill="#9e9e9e" opacity="1" data-original="#000000" class=""></path></g></svg>